<svg xmlns="http://www.w3.org/2000/svg" viewBox="0 0 364.84 88"><defs><style>.a{fill:#004696;}</style></defs><title>logo-voscur</title><path class="a" d="M131.57,52.15c0,22-16.56,32.1-33.64,32.1-18.65,0-33-11.56-33-31S78.5,21.4,99,21.4C118.53,21.4,131.57,34.06,131.57,52.15Zm-46.16.62c0,10.33,4.56,18.08,13,18.08,7.69,0,12.65-7.26,12.65-18.08,0-9-3.65-18.08-12.65-18.08C88.93,34.68,85.41,43.91,85.41,52.76Z"/><path class="a" d="M135.82,65.54c3.65,2.09,13.21,4.55,19.08,4.55s8.48,0,8.48-3-2-5.55-9.39-7.89c-13.17-4.18-19.25-10.95-19.12-18,0-11.32,6.72-20.17,22.95-19.8a40.69,40.69,0,0,1,20,5.44l.48,13.91c-2.87-1.48-14.34-6.44-19.82-6.44-4.82,0-6.86.53-6.86,3.6,0,2.83,5.6,4.84,13.6,8.21,11.43,4.81,15.18,8.31,15.34,18.57.17,11.19-7.39,18.56-25.64,18.56-8.34,0-13.78-.85-18.6-3.3Z"/><path class="a" d="M238.52,80.42a60,60,0,0,1-19.73,3.83c-20.6,0-33.77-11.93-33.77-30.87,0-17.59,11.78-31.21,35.51-31,11.67.11,17.12,4.34,17.12,4.34l-.13,13.9c-2.35-1-9.87-4.84-15.08-4.84-10.43,0-17.21,7-17.08,16.85,0,11.07,7.82,16.85,17.47,16.85,4.69,0,12.34-2.74,15.34-4Z"/><path class="a" d="M304.71,63.59c0,7.87.26,14.27.52,19.31H287l.09-8.49h-.39c-2.48,3.69-8.48,9.84-19.95,9.84-12.91,0-22.43-7.63-22.43-26.2V22.75h19.95V55.1c0,8.73,3,14,9.91,14a10.63,10.63,0,0,0,9.91-6.52,9.89,9.89,0,0,0,.65-4.06V22.75h19.95Z"/><path class="a" d="M334.31,40.66c3.26-8.73,10.76-19.52,21.27-18,1.81.26,7.83,4.76,9.26,5l-5.26,16.27c-1.43-.37-8.1-3.93-10.32-3.93C342,40,336,48.68,334.71,54.46a63,63,0,0,0-.39,7.18v20.5H314.5s.05-58,0-58.25l19.52.1"/><polyline class="a" points="0 0.05 39.36 87.91 39.36 87.96 39.37 87.94 39.39 88 39.39 87.88 76.76 0.01 72.74 0 55.25 0 39.37 45.75 21.5 0"/></svg>